<svg width="39" height="39" viewBox="0 0 39 39" fill="none" xmlns="http://www.w3.org/2000/svg">
<circle cx="19.5" cy="19.5" r="19.5" fill="#ECECEC"/>
<path d="M22.0875 14.0375C21.9119 14.2166 21.8135 14.4575 21.8135 14.7083C21.8135 14.9592 21.9119 15.2 22.0875 15.3792L23.6208 16.9125C23.8 17.0881 24.0408 17.1864 24.2916 17.1864C24.5425 17.1864 24.7833 17.0881 24.9625 16.9125L28.5754 13.2996C29.0573 14.3645 29.2032 15.5509 28.9937 16.7008C28.7842 17.8508 28.2292 18.9095 27.4027 19.736C26.5762 20.5625 25.5174 21.1175 24.3675 21.327C23.2176 21.5365 22.0311 21.3906 20.9662 20.9088L14.3442 27.5308C13.9629 27.9121 13.4458 28.1263 12.9067 28.1263C12.3675 28.1263 11.8504 27.9121 11.4692 27.5308C11.0879 27.1496 10.8737 26.6325 10.8737 26.0933C10.8737 25.5542 11.0879 25.0371 11.4692 24.6558L18.0912 18.0338C17.6093 16.9689 17.4634 15.7824 17.673 14.6325C17.8825 13.4826 18.4375 12.4238 19.264 11.5973C20.0905 10.7708 21.1492 10.2158 22.2991 10.0063C23.4491 9.7968 24.6355 9.9427 25.7004 10.4246L22.0971 14.0279L22.0875 14.0375Z" stroke="#353535" stroke-width="1.5" stroke-linecap="round" stroke-linejoin="round"/>
</svg>
